#N canvas 680 85 683 687 10;
#X obj 139 281 dac~;
#X obj 135 206 phasor~ 440;
#X obj 135 31 loadbang;
#X msg 135 61 in 17;
#X obj 135 103 s bela_setDigital;
#X obj 161 141 r bela_digitalIn17;
#X obj 259 197 print bela_digitalIn17;
#X obj 145 350 adc~ 3 4 5;
#X obj 302 349 snapshot~;
#X obj 308 536 print;
#X obj 298 298 metro 1000;
#X obj 298 269 loadbang;
#X obj 278 375 snapshot~;
#X obj 263 397 snapshot~;
#X obj 306 449 pack f f f;
#X msg 306 494 x \$1 y \$2 z \$3;
#X obj 453 448 print;
#X obj 452 385 > 0.4;
#X obj 377 390 < 0.45;
#X obj 420 416 &&;
#X obj 112 413 adc~ 6;
#X obj 115 453 dac~ 27;
#X obj 62 296 *~ 100;
#X obj 65 339 *~ 100;
#X obj 129 254 *~;
#X connect 1 0 24 0;
#X connect 2 0 3 0;
#X connect 3 0 4 0;
#X connect 5 0 6 0;
#X connect 7 0 13 0;
#X connect 7 0 22 0;
#X connect 7 1 12 0;
#X connect 7 1 23 0;
#X connect 7 2 8 0;
#X connect 8 0 14 2;
#X connect 8 0 17 0;
#X connect 8 0 18 0;
#X connect 10 0 8 0;
#X connect 10 0 12 0;
#X connect 10 0 13 0;
#X connect 11 0 10 0;
#X connect 12 0 14 1;
#X connect 13 0 14 0;
#X connect 14 0 15 0;
#X connect 15 0 9 0;
#X connect 17 0 19 1;
#X connect 18 0 19 0;
#X connect 19 0 16 0;
#X connect 20 0 21 0;
#X connect 22 0 24 1;
#X connect 23 0 1 0;
#X connect 24 0 0 0;
#X connect 24 0 0 1;
