#N canvas 680 85 683 687 10;
#X obj 190 388 dac~;
#X obj 139 265 phasor~ 440;
#X obj 294 306 vline~;
#X obj 190 347 *~;
#X obj 287 247 pack f f;
#X obj 282 223 f;
#X msg 292 274 1 \$1 \, 0 \$2 \$1;
#X obj 111 175 adc~ 3 4;
#X obj 135 31 loadbang;
#X obj 135 109 s bela_setDigital @hv_param;
#X msg 135 61 in 17;
#X obj 181 139 r bela_digitalIn17;
#X obj 139 313 *~;
#X msg 354 185 0.1;
#X msg 410 210 250;
#X obj 194 174 print bela_digitalIn17;
#X obj 92 239 *~ 880;
#X connect 1 0 12 0;
#X connect 2 0 3 1;
#X connect 3 0 0 0;
#X connect 3 0 0 1;
#X connect 4 0 6 0;
#X connect 5 0 4 0;
#X connect 6 0 2 0;
#X connect 7 0 16 0;
#X connect 8 0 10 0;
#X connect 10 0 9 0;
#X connect 11 0 15 0;
#X connect 11 0 5 0;
#X connect 12 0 3 0;
#X connect 13 0 5 1;
#X connect 14 0 4 1;
